<svg xmlns="http://www.w3.org/2000/svg" viewBox="0 -5 135 135">
  <defs>
    <radialGradient id="a">
      <stop offset="0%" stop-color="#2af" />
      <stop offset="100%" stop-color="#f00" />
    </radialGradient>
</defs>
<style>
  #enso{
    stroke: #f00;
    stroke-width:0.1;
  }
  @media(prefers-color-scheme:dark){
     #enso{
        stroke: transparent;
      }
  }
</style>
<path id="enso" fill="url(#a)" d="m 82 15 h 0.5 l 1.1 0.3 l 2 0.5 c 1 0.3 1.7 0.5 2.8 1 l 3.4 1.4 l 3.8 1.8 c 1.4 0.9 2.6 1.5 4 2.6 a 51.4 51.4 0 0 1 16.2 18.4 c 1.2 2.2 2.1 4.1 3 6.6 a 51.4 51.4 0 0 1 1.6 31 a 54 54 0 0 1 -16.3 27.7 a 56.7 56.7 0 0 1 -31.9 15 a 63.2 63.2 0 0 1 -22.4 -0.8 h 0.1 l 0.2 0.1 l 0.2 0.1 l 0.1 0.1 h 0.2 v 0.1 h 0.2 v 0.1 h 0.2 v 0.1 a 1.5 1.5 0 0 1 0.3 0.2 a 0.5 0.5 0 0 1 0 0.1 a 0.3 0.3 0 0 1 0 0.1 l 0.5 0.2 l 1.6 0.4 l 2.3 0.4 l 3 0.5 l 3.8 0.3 a 91.9 91.9 0 0 0 9.6 -0.2 a 63.8 63.8 0 0 0 24 -7.9 a 78.4 78.4 0 0 0 11.4 -8.7 a 55.6 55.6 0 0 0 15.4 -25.6 a 52.6 52.6 0 0 0 2.4 -14.6 a 50.4 50.4 0 0 0 -1.3 -13.9 a 47.2 47.2 0 0 0 -4 -12 a 61.5 61.5 0 0 0 -13.9 -18.5 l -2.1 -1.8 l -1.7 -1.3 l -1 -0.8 l -0.3 -0.2 l 0.4 0.2 l 1 0.7 a 281.1 281.1 0 0 1 4 3 l 2.6 2.5 a 85.5 85.5 0 0 1 5.8 6.7 a 57 57 0 0 1 5.8 58 a 57.4 57.4 0 0 1 -25.4 27.4 a 78.5 78.5 0 0 1 -12.5 5.3 c -1.9 0.6 -4.3 1 -6 1.4 c -1.9 0.4 -4.2 0.6 -5.8 0.8 a 60.2 60.2 0 0 1 -20.7 -1.6 l 2 0.6 l 3 0.7 l 4 0.6 c 1.5 0.2 3.7 0.4 5.4 0.4 h 6.1 a 76.2 76.2 0 0 0 14.2 -2.6 a 66.5 66.5 0 0 0 23.1 -13 a 58.4 58.4 0 0 0 16.8 -25.2 c 1 -3 2.1 -6.9 2.6 -10 a 59.4 59.4 0 0 0 -19.2 -55 a 66 66 0 0 0 -14.7 -9.7 l -7.4 -2.8 a 52.9 52.9 0 0 0 -13.7 -2.5 a 62.2 62.2 0 0 0 -14.6 1 l -2.9 0.5 l -1.8 0.5 h -0.6 l 0.6 -0.1 l 1.8 -0.6 l 2.8 -0.7 a 77.5 77.5 0 0 1 8.8 -1 a 61.4 61.4 0 0 1 27.2 5.1 a 62.7 62.7 0 0 1 21.6 16.7 c 1.9 2.4 4 5.5 5.6 8.1 a 61.2 61.2 0 0 1 -12 75.9 a 59.4 59.4 0 0 1 -23.3 13.5 a 63.7 63.7 0 0 1 -26.2 2.7 l -4.1 -0.6 l -3.1 -0.6 l -2 -0.5 h -0.6 l 0.7 0.2 a 40.6 40.6 0 0 0 6 1.5 a 58.2 58.2 0 0 0 18.3 0.8 a 66.6 66.6 0 0 0 25.7 -8.5 a 69.6 69.6 0 0 0 23 -23.3 a 70.5 70.5 0 0 0 7.9 -23 c 0.5 -3.6 0.7 -9 0.5 -12.6 c -0.3 -3.6 -1 -8.8 -2 -12.3 s -2.7 -8.5 -4.3 -11.8 a 74.8 74.8 0 0 0 -6.5 -10.5 c -2.1 -2.9 -5.6 -6.7 -8.2 -9 s -6.7 -5.5 -9.6 -7.2 a 65.6 65.6 0 0 0 -40.8 -8.7 a 71 71 0 0 0 -16.6 4.3 a 82.7 82.7 0 0 0 -11.3 6.2 c -1.4 0.9 -3.1 2.2 -4 3 l -2.7 2.2 l -1.5 1.3 l -0.7 0.8 l 3.1 -3 l 3 -2.4 l 3.2 -2.2 l 3.6 -2.3 l 3.4 -1.8 l 3.5 -1.8 l 3.6 -1.4 l 4.1 -1.3 l 3.8 -1 l 3.8 -0.7 l 4.3 -0.5 l 3.9 -0.2 h 3.9 l 4.3 0.3 l 3.9 0.6 l 3.8 0.8 l 3.8 1 l 3.8 1.3 l 4 1.6 l 3.6 1.7 l 3.4 2 l 3.7 2.3 l 3.1 2.3 l 3 2.6 l 2.9 2.7 l 3 3.2 l 2.4 3 l 2.2 3.2 l 2.3 3.7 l 1.9 3.5 l 1.6 3.5 l 1.6 4 l 1.1 3.8 l 1 3.8 l 0.7 4 l 0.5 4.3 l 0.2 3.9 v 4 l -0.4 4.3 l -0.6 4 l -0.8 3.8 l -1 3.9 l -1.4 4.2 l -1.6 3.6 l -1.7 3.6 l -2 3.4 l -2.4 3.7 l -2.3 3.2 l -2.6 3 l -3 3.2 l -3 2.6 l -3.1 2.5 l -3.2 2.3 l -3.8 2.3 l -3.5 1.8 l -3.6 1.7 l -4.2 1.5 l -3.7 1.2 l -3.9 1 l -4.4 0.7 l -4 0.4 l -4 0.2 h -4 l -4.5 -0.4 s 11.3 1.5 15.4 1 a 70.3 70.3 0 0 0 35.2 -15 c 3.3 -2.8 8.2 -8 11 -11.8 a 74.9 74.9 0 0 0 8.6 -16.3 a 81 81 0 0 0 4 -20.2 c 0.2 -6 -1 -15.8 -2.9 -21.8 c -1.9 -5.9 -6.2 -14.8 -9.8 -19.7 a 78.4 78.4 0 0 0 -16 -15.4 a 81.7 81.7 0 0 0 -18.4 -8.8 a 82.3 82.3 0 0 0 -16.5 -2.7 c -3.9 0 -8.4 0.3 -8.8 0.3 a 87.7 87.7 0 0 0 -14.3 2.9 c -3 1 -8.3 3.2 -11.7 5 c -3.4 1.7 -9 5.6 -12 8.2 c -3 2.7 -7.4 7.4 -10 10.7 c -2.6 3.4 -6 9.7 -7.8 13.6 a 77.2 77.2 0 0 0 -4.4 14.8 a 88 88 0 0 0 -1 14 c 0 3.6 0.8 9.6 1.5 13 c 0.8 3.4 2.5 9 3.8 11.9 a 73.3 73.3 0 0 0 16.3 23.4 c 5.7 4 4.3 2.3 9.5 4.3 c 7.6 3 17.6 -0.2 19.3 -3.6 c 1.8 -3.3 -0.5 -12.3 -9.6 -21.4 c -1.4 -1.3 -2 -1.8 -3.6 -3.5 s -2 -2.2 -3.6 -4.6 c -1.5 -2.3 -2 -3.2 -3.4 -6 c -1.4 -3 -1.6 -3.6 -2.5 -7 c -1 -3.5 -1 -4.4 -1.3 -8.2 c -0.3 -3.8 -0.4 -4.5 0.4 -8.8 c 0.7 -4.4 0.7 -5.5 2.7 -9.9 s 2.5 -5.7 5.5 -9.6 s 4.1 -5 7.9 -8 c 3.7 -2.9 4.7 -3.6 9 -5.3 s 5.8 -2.5 9.7 -3 s 5.4 -1 8.4 -0.8 l 4.2 0.2 c 0.2 0 1 0 3.2 0.4 s 3.5 0.5 6.8 1.5 c 3.2 1.1 5 1.7 8.8 3.8 s 5.6 3.5 9 6.8 s 5.3 5.3 7.9 9.8 c 2.5 4.5 4 7.4 5.2 12.7 a 43 43 0 0 1 1.5 14.2 a 52.8 52.8 0 0 1 -8.9 26.5 a 53.5 53.5 0 0 1 -18.6 16.9 l 1.4 -0.5 l 1.9 -0.9 l 2.2 -1.1 l 2.5 -1.6 a 57.9 57.9 0 0 0 11.4 -10.5 a 88 88 0 0 0 2.8 -3.8 c 1 -1.3 1.6 -2.6 2.4 -4.1 a 47.5 47.5 0 0 0 5.2 -14.7 a 50.4 50.4 0 0 0 0.6 -16.2 c -0.2 -2 -0.5 -3.5 -1 -5.4 c -0.3 -1.8 -0.8 -3.3 -1.4 -5.1 a 32 32 0 0 0 -2 -4.8 c -0.7 -1.6 -1.3 -3 -2.3 -4.5 a 48.5 48.5 0 0 0 -5.7 -8 l -3.2 -3 a 86 86 0 0 0 -3.4 -3 l -3.2 -2.4 l -3.1 -1.9 a 70 70 0 0 0 -6.1 -3 l -2.6 -1 l -2.2 -0.6 l -1.7 -0.5"/>
</svg>